<?xml version="1.0" encoding="utf-8"?>
<!-- Generator: Adobe Illustrator 23.0.2, SVG Export Plug-In . SVG Version: 6.00 Build 0)  -->
<svg version="1.1" id="Слой_1" xmlns="http://www.w3.org/2000/svg" xmlns:xlink="http://www.w3.org/1999/xlink" x="0px" y="0px"
	 viewBox="0 0 218 80" width="218" height="80" style="enable-background:new 0 0 218 80;" xml:space="preserve">
<style type="text/css">
	.st0{clip-path:url(#SVGID_2_);}
	.st1{fill:#BCBEC0;}
	.st2{fill:#09B300;}
</style>
<title>Монтажная область 1</title>
<g>
	<defs>
		<rect id="SVGID_1_" y="0" width="218" height="80"/>
	</defs>
	<clipPath id="SVGID_2_">
		<use xlink:href="#SVGID_1_"  style="overflow:visible;"/>
	</clipPath>
	<g class="st0">
		<g>
			<path class="st1" d="M129.4,59.7c0.9,0,1.8,0.2,2.6,0.7c0.8,0.5,1.4,1.2,1.8,2c0.9,1.9,0.9,4.1,0,6c-0.4,0.8-1,1.5-1.8,1.9
				c-0.8,0.5-1.7,0.7-2.6,0.7c-1,0-1.9-0.3-2.7-0.8c-0.7-0.5-1.2-1.3-1.5-2.1v2.8h-1.8V56h1.8v6.6c0.3-0.9,0.8-1.6,1.5-2.1
				C127.5,59.9,128.4,59.6,129.4,59.7z M128.9,61.3c-0.7,0-1.3,0.2-1.9,0.5c-0.6,0.3-1,0.8-1.3,1.4c-0.6,1.3-0.6,2.9,0,4.2
				c0.3,0.6,0.8,1.1,1.3,1.4c0.6,0.3,1.2,0.5,1.9,0.5c1,0,2-0.3,2.7-1.1c0.7-0.8,1.1-1.9,1-3c0.1-1.1-0.3-2.1-1-2.9
				C130.9,61.6,129.9,61.2,128.9,61.3z"/>
			<path class="st1" d="M137.6,59.8l3.6,8.6l3.3-8.6h2L140,76h-2.1l2.3-5.4l-4.6-10.8L137.6,59.8z"/>
			<path class="st1" d="M163.2,64.7c0,0.3,0,0.7-0.1,1h-8.8c0,1,0.3,2.1,1.1,2.8c0.7,0.6,1.6,1,2.5,0.9c0.8,0,1.6-0.2,2.2-0.7
				c0.6-0.4,1-1.1,1.1-1.8h1.9c-0.1,0.7-0.4,1.4-0.9,2c-0.5,0.6-1.1,1.1-1.8,1.4c-0.8,0.3-1.6,0.5-2.5,0.5c-1,0-1.9-0.2-2.8-0.7
				c-0.8-0.4-1.5-1.1-1.9-1.9c-0.9-1.9-0.9-4.1,0-6c0.4-0.8,1.1-1.5,1.9-2c0.9-0.5,1.8-0.7,2.8-0.7c1,0,1.9,0.2,2.8,0.7
				c0.8,0.4,1.4,1.1,1.8,1.8C163,62.9,163.2,63.8,163.2,64.7z M161.4,64.8c0.1-0.7-0.1-1.4-0.4-2c-0.3-0.5-0.7-0.9-1.3-1.2
				c-0.5-0.3-1.1-0.4-1.7-0.4c-0.9,0-1.8,0.3-2.5,0.9c-0.7,0.7-1.1,1.7-1.1,2.7L161.4,64.8z"/>
			<path class="st1" d="M171.9,70.8l-2.9-4.2l-2.6,4.2h-2l3.6-5.7l-3.6-5.3h2.1l2.8,4.1l2.5-4.1h2l-3.6,5.5l3.8,5.5H171.9z"/>
			<path class="st1" d="M180.2,59.7c1,0,1.9,0.3,2.7,0.8c0.7,0.5,1.3,1.3,1.6,2.1v-2.8h1.8v11h-1.8V68c-0.3,0.9-0.8,1.6-1.6,2.1
				c-0.8,0.5-1.7,0.8-2.7,0.8c-0.9,0-1.8-0.2-2.6-0.7c-0.8-0.5-1.4-1.1-1.8-1.9c-0.8-1.9-0.8-4.1,0-6c0.4-0.8,1-1.5,1.8-2
				C178.4,59.9,179.3,59.7,180.2,59.7z M180.7,61.3c-1,0-2,0.4-2.7,1.1c-0.7,0.8-1.1,1.9-1,2.9c-0.1,1.1,0.3,2.2,1,3
				c0.7,0.7,1.7,1.1,2.7,1.1c0.7,0,1.3-0.2,1.9-0.5c0.6-0.3,1-0.8,1.4-1.4c0.6-1.3,0.6-2.9,0-4.2c-0.3-0.6-0.8-1.1-1.4-1.4
				C182,61.5,181.4,61.3,180.7,61.3L180.7,61.3z"/>
			<path class="st1" d="M193.6,59.7c1,0,1.9,0.3,2.7,0.8c0.7,0.5,1.3,1.3,1.6,2.1V56h1.8v14.8h-1.8V68c-0.3,0.9-0.8,1.6-1.6,2.1
				c-0.8,0.5-1.7,0.8-2.7,0.8c-0.9,0-1.8-0.2-2.6-0.7c-0.8-0.5-1.4-1.1-1.8-1.9c-0.9-1.9-0.9-4.1,0-6c0.4-0.8,1-1.5,1.8-2
				C191.8,59.9,192.7,59.7,193.6,59.7z M194.2,61.3c-1,0-2,0.3-2.7,1.1c-0.7,0.8-1.1,1.9-1,2.9c-0.1,1.1,0.3,2.2,1,3
				c0.7,0.7,1.7,1.1,2.7,1.1c0.7,0,1.3-0.2,1.9-0.5c0.6-0.3,1-0.8,1.3-1.4c0.6-1.3,0.6-2.9,0-4.2c-0.3-0.6-0.8-1.1-1.3-1.4
				C195.5,61.5,194.8,61.3,194.2,61.3z"/>
			<path class="st1" d="M212.7,64.7c0,0.3,0,0.7-0.1,1h-8.8c0,1,0.3,2.1,1.1,2.8c0.7,0.6,1.6,1,2.5,0.9c0.8,0,1.6-0.2,2.2-0.7
				c0.6-0.4,1-1.1,1.1-1.8h1.9c-0.1,0.7-0.4,1.4-0.9,2c-0.5,0.6-1.1,1.1-1.8,1.4c-0.8,0.3-1.6,0.5-2.5,0.5c-1,0-1.9-0.2-2.8-0.7
				c-0.8-0.4-1.5-1.1-1.9-1.9c-0.9-1.9-0.9-4.1,0-6c0.4-0.8,1.1-1.5,1.9-2c0.9-0.5,1.8-0.7,2.8-0.7c1,0,1.9,0.2,2.8,0.7
				c0.8,0.4,1.4,1.1,1.8,1.8C212.5,62.9,212.7,63.8,212.7,64.7z M210.9,64.8c0.1-0.7-0.1-1.4-0.4-2c-0.3-0.5-0.7-0.9-1.3-1.2
				c-0.5-0.3-1.1-0.4-1.7-0.4c-0.9,0-1.8,0.3-2.5,0.9c-0.7,0.7-1.1,1.7-1.1,2.7L210.9,64.8z"/>
			<path class="st1" d="M216.9,56v14.8h-1.8V56H216.9z"/>
			<g>
				<path class="st2" d="M27,13.2v25.9h-3.3v-4.5c-1.3,1.6-2.9,2.9-4.7,3.8c-1.8,0.9-3.7,1.3-5.7,1.3c-3.6,0-7-1.4-9.4-4
					c-2.6-2.6-4-6.1-3.9-9.7c-0.1-3.6,1.4-7.1,3.9-9.6c2.5-2.6,5.9-4,9.5-4c2,0,4,0.4,5.8,1.4c1.8,1,3.4,2.4,4.5,4.1v-4.8H27z
					 M13.7,15.8c-3.7,0-7.1,2-8.9,5.2c-1.9,3.2-1.9,7.2,0,10.5c0.9,1.6,2.2,3,3.8,3.9c1.5,0.9,3.3,1.4,5.1,1.4
					c1.8,0,3.6-0.5,5.2-1.4c1.6-0.9,2.9-2.2,3.8-3.7c0.9-1.6,1.4-3.5,1.3-5.3c0-1.4-0.2-2.8-0.7-4.1c-0.5-1.3-1.3-2.5-2.3-3.5
					c-0.9-1-2.1-1.8-3.3-2.3C16.3,16,15,15.8,13.7,15.8L13.7,15.8z M34.2,13.2h3.3V18c1.2-1.7,2.7-3.1,4.5-4.1
					c1.8-0.9,3.7-1.4,5.7-1.4c3.6,0,7,1.4,9.5,4c2.6,2.5,4,6,3.9,9.6c0.1,6.6-4.5,12.3-11,13.5c-2.7,0.5-5.5,0.1-8-1.1
					c-1.8-0.9-3.4-2.2-4.7-3.8v14h-3.3L34.2,13.2L34.2,13.2z M47.5,15.8c-2.7-0.1-5.4,1-7.3,3c-2,2-3.1,4.7-3,7.5
					c0,1.9,0.5,3.7,1.4,5.3c0.9,1.6,2.2,2.9,3.8,3.7c1.6,0.9,3.4,1.4,5.2,1.4c1.8,0,3.5-0.5,5-1.4c1.6-0.9,2.9-2.3,3.8-3.9
					c1.9-3.3,2-7.2,0-10.5C54.6,17.8,51.2,15.7,47.5,15.8L47.5,15.8z M65.9,13.2h3.3V18c1.2-1.7,2.7-3.1,4.6-4.1
					c1.8-0.9,3.7-1.4,5.7-1.4c3.6,0,7,1.4,9.4,4c2.6,2.5,4,6,3.9,9.6c0.2,7.3-5.6,13.5-12.9,13.7c-2.1,0.1-4.1-0.4-6-1.2
					c-1.8-0.9-3.4-2.2-4.7-3.8v14h-3.4V13.2z M79.3,15.8c-2.7-0.1-5.4,1-7.3,3c-2,2-3.1,4.7-3,7.5c0,1.9,0.4,3.7,1.3,5.3
					c0.9,1.6,2.2,2.9,3.8,3.7c1.6,0.9,3.4,1.4,5.2,1.4c1.8,0,3.5-0.5,5.1-1.4c1.6-0.9,2.9-2.3,3.8-3.9c1.8-3.2,1.8-7.2,0-10.4
					C86.3,17.8,82.9,15.8,79.3,15.8L79.3,15.8z M119.8,30.6l2.8,1.4c-0.8,1.6-1.9,3.1-3.2,4.4c-1.2,1.1-2.6,2-4.1,2.6
					c-1.6,0.6-3.4,0.9-5.1,0.9c-4.2,0-7.5-1.4-9.9-4.2c-2.3-2.6-3.6-5.9-3.6-9.4c0-3.2,1-6.3,3-8.8c2.4-3.2,6.3-5,10.3-4.9
					c4.1-0.1,8.1,1.7,10.6,5c1.9,2.5,2.9,5.7,2.9,8.9h-23.3c0,2.8,1,5.4,2.9,7.4c0.9,0.9,2,1.6,3.1,2.1c1.2,0.5,2.5,0.7,3.8,0.7
					c1.3,0,2.6-0.2,3.9-0.7c1.2-0.4,2.2-1,3.2-1.8C118.1,33.2,119.1,31.9,119.8,30.6L119.8,30.6z M119.8,23.6c-0.3-1.5-1-3-1.9-4.3
					c-0.9-1.1-2.1-2-3.4-2.6c-1.4-0.7-2.9-1-4.4-1c-2.4,0-4.8,0.8-6.6,2.5c-1.5,1.5-2.5,3.3-3,5.4L119.8,23.6z M128.9,13.2h3.4V17
					c0.8-1.3,1.9-2.5,3.2-3.4c1-0.7,2.3-1.1,3.5-1.1c1.1,0,2.1,0.3,3,0.9l-1.7,2.8c-0.6-0.3-1.2-0.4-1.8-0.4c-1.2,0-2.4,0.5-3.2,1.4
					c-1.2,1.2-2,2.6-2.4,4.3c-0.4,1.5-0.6,4.5-0.6,9v8.8h-3.4L128.9,13.2L128.9,13.2z M144.7,13.2h3.5l8.9,20l8.7-20h3.6l-15.5,35.4
					h-3.5l5-11.5L144.7,13.2L144.7,13.2z"/>
			</g>
			<path class="st1" d="M170.6,33.9c1.7,0.1,2.9,1.5,2.8,3.1c0,0.7-0.3,1.3-0.8,1.9c-0.3,0.3-0.6,0.5-0.9,0.6
				c-0.7,0.3-1.5,0.3-2.3,0c-0.4-0.1-0.7-0.4-0.9-0.6c-0.4-0.4-0.6-0.9-0.7-1.5c-0.1-0.6,0-1.1,0.2-1.7
				C168.4,34.7,169.4,34,170.6,33.9L170.6,33.9z M182.6,2.6c0.4,0,0.7,0.1,1.1,0.2c0.3,0.1,0.7,0.4,0.9,0.6c0.3,0.3,0.5,0.6,0.6,0.9
				c0.1,0.3,0.2,0.7,0.2,1.1c0,1.1-0.7,2.1-1.7,2.5c-0.3,0.1-0.7,0.2-1.1,0.2c-0.7,0-1.4-0.3-1.9-0.8c-0.3-0.2-0.5-0.5-0.6-0.9
				c-0.1-0.3-0.2-0.7-0.2-1c0-0.4,0-0.8,0.2-1.1c0.1-0.3,0.4-0.7,0.6-0.9C181.1,2.8,181.8,2.5,182.6,2.6L182.6,2.6z M180.9,13.2h3.3
				v26h-3.3V13.2L180.9,13.2z M203.5,12.6c3.8-0.1,7.4,1.5,9.9,4.3c2.4,2.5,3.7,5.9,3.6,9.4c0,3.5-1.3,7-3.8,9.5
				c-5.3,5.4-14,5.4-19.4,0.1c0,0-0.1-0.1-0.1-0.1c-2.5-2.5-3.8-6-3.8-9.5c-0.1-3.5,1.2-6.8,3.6-9.4C196,14.1,199.7,12.5,203.5,12.6
				L203.5,12.6z M203.5,15.8c-2.7,0-5.3,1.1-7.2,3.1c-2,2-3,4.7-3,7.4c0,1.8,0.5,3.7,1.4,5.3c0.9,1.6,2.1,2.9,3.7,3.7
				c3.2,1.8,7,1.8,10.2,0c1.6-0.9,2.8-2.2,3.7-3.8c0.9-1.6,1.4-3.4,1.4-5.2c0-1.4-0.2-2.7-0.7-4c-0.5-1.3-1.3-2.4-2.3-3.4
				C208.7,16.9,206.2,15.8,203.5,15.8L203.5,15.8z"/>
		</g>
	</g>
</g>
</svg>
